<svg xmlns="http://www.w3.org/2000/svg" viewBox="0 -0.5 29 29" shape-rendering="crispEdges">
<metadata>Made with Pixels to Svg https://codepen.io/shshaw/pen/XbxvNj</metadata>
<path stroke="#b5bac1" d="M2 2h7M6 3h3M5 4h3M4 5h3M3 6h3M12 6h5M2 7h3M14 7h2M2 8h7M13 8h2M12 9h5M20 11h1M19 12h2M12 13h1M18 13h3M11 14h2M18 14h3M10 15h4M15 15h1M17 15h4M22 15h1M7 16h2M10 16h5M17 16h5M23 16h1M5 17h3M9 17h14M5 18h3M9 18h14M4 19h4M9 19h14M3 20h5M9 20h13M24 20h1M3 21h6M10 21h1M13 21h7M22 21h1M24 21h1M3 22h6M10 22h3M16 22h3M20 22h3M24 22h1M3 23h7M11 23h5M17 23h5M23 23h1M25 23h1M3 24h8M12 24h6M19 24h1M22 24h1M25 24h1M4 25h8M20 25h2M24 25h2M10 26h6M20 26h2M23 26h2" />
</svg>