<svg xmlns="http://www.w3.org/2000/svg" viewBox="0 -0.5 29 29" shape-rendering="crispEdges">
<metadata>Made with Pixels to Svg https://codepen.io/shshaw/pen/XbxvNj</metadata>
<path stroke="#b5bac1" d="M9 2h1M17 2h1M9 3h2M16 3h2M8 4h3M16 4h3M8 5h4M15 5h4M7 6h5M15 6h5M7 7h13M7 8h3M11 8h5M17 8h3M7 9h3M11 9h5M17 9h3M7 10h3M11 10h5M17 10h3M7 11h13M7 12h1M11 12h2M14 12h2M19 12h1M8 13h11M9 14h9M12 15h3M12 16h3M11 17h5M10 18h7M9 19h9M9 20h9M5 21h2M9 21h4M14 21h4M20 21h2M4 22h4M10 22h3M14 22h3M19 22h4M4 23h5M10 23h3M14 23h3M18 23h5M6 24h3M10 24h3M14 24h3M18 24h3M4 25h5M10 25h2M15 25h2M18 25h5M24 25h4" />
</svg>