<svg xmlns="http://www.w3.org/2000/svg" viewBox="0 -0.5 29 29" shape-rendering="crispEdges">
<metadata>Made with Pixels to Svg https://codepen.io/shshaw/pen/XbxvNj</metadata>
<path stroke="#000000" d="M0 0h29M0 1h29M0 2h29M0 3h29M0 4h29M0 5h29M0 6h29M0 7h29M0 8h4M10 8h19M0 9h7M9 9h5M18 9h11M0 10h6M8 10h8M17 10h12M0 11h5M7 11h8M16 11h3M20 11h9M0 12h4M10 12h4M18 12h1M20 12h9M0 13h18M21 13h8M0 14h11M12 14h6M21 14h8M0 15h7M9 15h1M13 15h1M16 15h1M21 15h1M23 15h6M0 16h5M9 16h1M14 16h2M22 16h1M24 16h5M0 17h4M8 17h1M23 17h6M0 18h4M8 18h1M23 18h6M0 19h4M8 19h1M23 19h6M0 20h3M8 20h1M21 20h1M23 20h1M25 20h4M0 21h3M9 21h1M11 21h3M20 21h1M23 21h1M25 21h4M0 22h3M9 22h1M14 22h2M19 22h1M23 22h1M25 22h4M0 23h3M10 23h1M16 23h1M22 23h1M24 23h1M26 23h3M0 24h3M11 24h1M18 24h1M20 24h2M23 24h2M26 24h3M0 25h4M12 25h8M22 25h2M26 25h3M0 26h10M16 26h4M22 26h1M25 26h4M0 27h29M0 28h29" />
</svg>