<svg xmlns="http://www.w3.org/2000/svg" viewBox="0 -0.5 29 29" shape-rendering="crispEdges">
<metadata>Made with Pixels to Svg https://codepen.io/shshaw/pen/XbxvNj</metadata>
<path stroke="#000000" d="M0 0h29M0 1h29M0 2h2M9 2h20M0 3h6M9 3h20M0 4h5M8 4h21M0 5h4M7 5h22M0 6h3M6 6h6M17 6h12M0 7h2M5 7h9M16 7h13M0 8h2M9 8h4M15 8h14M0 9h12M17 9h12M0 10h29M0 11h20M21 11h8M0 12h19M21 12h8M0 13h12M13 13h5M21 13h8M0 14h11M13 14h5M21 14h8M0 15h10M14 15h1M16 15h1M21 15h1M23 15h6M0 16h7M9 16h1M15 16h2M22 16h1M24 16h5M0 17h5M8 17h1M23 17h6M0 18h5M8 18h1M23 18h6M0 19h4M8 19h1M23 19h6M0 20h3M8 20h1M22 20h2M25 20h4M0 21h3M9 21h1M11 21h2M20 21h2M23 21h1M25 21h4M0 22h3M9 22h1M13 22h3M19 22h1M23 22h1M25 22h4M0 23h3M10 23h1M16 23h1M22 23h1M24 23h1M26 23h3M0 24h3M11 24h1M18 24h1M20 24h2M23 24h2M26 24h3M0 25h4M12 25h8M22 25h2M26 25h3M0 26h10M16 26h4M22 26h1M25 26h4M0 27h29M0 28h29" />
</svg>