<svg xmlns="http://www.w3.org/2000/svg" viewBox="0 -0.5 29 29" shape-rendering="crispEdges">
<metadata>Made with Pixels to Svg https://codepen.io/shshaw/pen/XbxvNj</metadata>
<path stroke="#000000" d="M0 0h29M0 1h29M0 2h9M10 2h7M18 2h11M0 3h9M11 3h5M18 3h11M0 4h8M11 4h5M19 4h10M0 5h8M12 5h3M19 5h10M0 6h7M12 6h3M20 6h9M0 7h7M20 7h9M0 8h7M10 8h1M16 8h1M20 8h9M0 9h7M10 9h1M16 9h1M20 9h9M0 10h7M10 10h1M16 10h1M20 10h9M0 11h7M20 11h9M0 12h7M8 12h3M13 12h1M16 12h3M20 12h9M0 13h8M19 13h10M0 14h9M18 14h11M0 15h12M15 15h14M0 16h12M15 16h14M0 17h11M16 17h13M0 18h10M17 18h12M0 19h9M18 19h11M0 20h9M18 20h11M0 21h5M7 21h2M13 21h1M18 21h2M22 21h7M0 22h4M8 22h2M13 22h1M17 22h2M23 22h6M0 23h4M9 23h1M13 23h1M17 23h1M23 23h6M0 24h6M9 24h1M13 24h1M17 24h1M21 24h8M0 25h4M9 25h1M12 25h3M17 25h1M23 25h1M28 25h1M0 26h29M0 27h29M0 28h29" />
</svg>